<svg width="120" height="120" viewBox="0 0 120 120" xmlns="http://www.w3.org/2000/svg">
  <!-- Bouclier principal -->
  <path d="M60 10 L20 25 L20 70 Q20 90 60 110 Q100 90 100 70 L100 25 Z" fill="#1B5E20" stroke="#2E7D32" stroke-width="2"/>
  
  <!-- Livre ouvert au centre -->
  <rect x="45" y="35" width="30" height="20" fill="#FFF" rx="2"/>
  <line x1="60" y1="35" x2="60" y2="55" stroke="#1B5E20" stroke-width="1"/>
  <line x1="48" y1="40" x2="57" y2="40" stroke="#666" stroke-width="0.5"/>
  <line x1="48" y1="45" x2="57" y2="45" stroke="#666" stroke-width="0.5"/>
  <line x1="48" y1="50" x2="57" y2="50" stroke="#666" stroke-width="0.5"/>
  <line x1="63" y1="40" x2="72" y2="40" stroke="#666" stroke-width="0.5"/>
  <line x1="63" y1="45" x2="72" y2="45" stroke="#666" stroke-width="0.5"/>
  <line x1="63" y1="50" x2="72" y2="50" stroke="#666" stroke-width="0.5"/>
  
  <!-- Étoiles académiques -->
  <polygon points="35,25 37,30 42,30 38,33 40,38 35,35 30,38 32,33 28,30 33,30" fill="#FFD700"/>
  <polygon points="85,25 87,30 92,30 88,33 90,38 85,35 80,38 82,33 78,30 83,30" fill="#FFD700"/>
  
  <!-- Devise en bas -->
  <text x="60" y="75" text-anchor="middle" font-family="serif" font-size="8" fill="#FFD700" font-weight="bold">EXCELLENCE</text>
  <text x="60" y="85" text-anchor="middle" font-family="serif" font-size="6" fill="#FFF">• BILINGUAL •</text>
  
  <!-- Années de fondation -->
  <text x="60" y="95" text-anchor="middle" font-family="Arial" font-size="7" fill="#A5D6A7">Est. 1985</text>
  
  <!-- Bordure décorative -->
  <circle cx="60" cy="60" r="48" fill="none" stroke="#4CAF50" stroke-width="1" stroke-dasharray="3,2"/>
</svg>